<svg xmlns="http://www.w3.org/2000/svg" viewBox="0 0 128 128" width="128" height="128" role="img" aria-label="TimberTimer">
  <defs>
    <linearGradient id="tt-bg" x1="0" y1="0" x2="1" y2="1">
      <stop offset="0" stop-color="#4ade80" />
      <stop offset="1" stop-color="#16a34a" />
    </linearGradient>
  </defs>
  <rect width="128" height="128" rx="30" fill="url(#tt-bg)" />
  <g fill="#ffffff" stroke="#ffffff" stroke-width="7" stroke-linecap="round" stroke-linejoin="round">
    <path d="M45 102h38" fill="none" />
    <path d="M63 102c20-9 3-23 11-37" fill="none" />
    <path d="M60 52c4.5 3 7.5 8.5 9 14.5-8 1.5-14 1.5-18.5-1.5s-9-7.5-11.5-16c10.5-2 16.5 0 21 3z" stroke="none" />
    <path d="M78 39a27 27 0 0 0-4.5 16c7.5-.5 13-2.5 17-6 3.5-3.5 6-8.5 6.5-17.5-10.5.5-15.5 3.5-19 7.5z" stroke="none" />
  </g>
</svg>
